<svg xmlns="http://www.w3.org/2000/svg" width="45" height="45" viewBox="0 0 45 45" fill="none"><path d="M45 22.5C45 34.9264 34.9264 45 22.5 45C10.0736 45 0 34.9264 0 22.5C0 10.0736 10.0736 0 22.5 0C34.9264 0 45 10.0736 45 22.5Z" fill="black"></path><path d="M15.3308 22.3922L18.781 23.795L26.9722 17.7998C27.091 17.7128 27.2126 17.9059 27.1102 18.0187L20.9088 24.8524L20.6782 28.6782C20.6607 28.9693 20.9535 29.1313 21.1273 28.9267L23.0367 26.6789L26.5272 29.8423C26.9035 30.1834 27.4483 29.943 27.5498 29.3913L29.9803 16.1794C30.1189 15.4257 29.502 14.7897 28.9 15.0657L15.3132 21.2944C14.887 21.4898 14.8986 22.2165 15.3308 22.3922Z" fill="white"></path></svg>