<svg xmlns="http://www.w3.org/2000/svg" width="64" height="20" viewBox="0 0 64 20" fill="none"><path fill-rule="evenodd" clip-rule="evenodd" d="M51.7375 0.240918C50.8274 1.09345 49.4212 4.28055 48.7766 6.952C48.5731 7.79514 48.5731 7.79514 48.2644 7.61298C47.8185 7.34992 46.2896 8.22647 46.2896 8.74515C46.2896 8.7862 46.136 8.95538 45.9484 9.12116C45.7609 9.28693 45.4081 9.60486 45.1647 9.82761C44.6901 10.262 44.5492 10.2727 44.7056 9.86268C44.7594 9.72185 44.8535 9.37879 44.9149 9.10036C44.9762 8.82192 45.0596 8.4564 45.1001 8.28805C45.2838 7.52664 44.9557 7.54634 44.5088 8.32349C44.1588 8.93191 43.6121 9.55193 43.259 9.7409C42.962 9.89987 43.0083 9.50655 43.35 8.96781C43.6331 8.52139 43.6147 8.27571 43.3072 8.39381C42.8136 8.58315 42.6566 10.1129 43.1307 10.1129C43.2959 10.1129 44.224 9.24349 44.4286 8.89712C44.5972 8.61159 44.8781 8.53354 44.7737 8.80121C44.7391 8.88985 44.6126 9.32771 44.4925 9.77441C44.2901 10.5274 44.2321 10.6312 43.6941 11.2028C42.3428 12.6383 41.3199 14.1594 40.6513 15.7277C39.1486 19.2518 39.9417 21.6069 41.6432 18.6731C42.6065 17.0122 44.1845 12.8842 44.02 12.4555C43.9918 12.3821 44.0134 12.322 44.068 12.322C44.167 12.322 44.3843 11.6521 44.4882 11.0267C44.5292 10.7801 44.7184 10.5156 45.2451 9.96817C45.8546 9.33489 45.9382 9.27487 45.8779 9.51456C45.5797 10.6997 45.8909 11.0514 46.7396 10.4884C47.15 10.216 48.2234 8.98815 48.2215 8.79301C48.2205 8.68624 47.3136 9.64407 47.306 9.75987C47.2977 9.88753 46.3942 10.481 46.2082 10.481C46.0358 10.481 46.0134 10.4281 46.0134 10.0208C46.0134 9.76769 46.0486 9.56059 46.0915 9.56059C46.1345 9.56059 46.2479 9.38699 46.3436 9.17473C46.7058 8.37135 47.8888 7.5306 48.2079 7.84963C48.3439 7.98568 48.2629 8.09098 47.2091 9.1473C46.5783 9.77966 46.1237 10.2973 46.1989 10.2978C46.3334 10.2986 47.9464 8.66341 47.9464 8.52626C47.9464 8.4877 48.0052 8.45603 48.0772 8.45603C48.2563 8.45603 48.3437 8.91976 48.2239 9.23483C47.9995 9.82513 47.7647 13.3128 47.9123 13.8637C48.0268 14.2906 48.0851 14.0395 48.1049 13.035C48.1249 12.0224 48.3389 10.0171 48.4953 9.37649C48.5385 9.19931 48.6003 8.86168 48.6326 8.62632C48.6704 8.35073 48.8132 8.02286 49.0336 7.70586C49.7305 6.70311 50.4491 5.42919 50.3805 5.31809C50.3397 5.25218 50.3495 5.22972 50.4043 5.26351C50.5996 5.38427 51.6654 3.21023 52.1802 1.64075C52.6274 0.277736 52.4151 -0.393648 51.7375 0.240918ZM52.1805 0.47941C52.1805 0.597965 52.1191 0.898219 52.044 1.14674C51.969 1.39527 51.9302 1.68144 51.958 1.78269C51.9909 1.90272 51.9807 1.92702 51.9286 1.85265C51.8733 1.77367 51.8125 1.84445 51.7311 2.08276C51.5909 2.49375 51.4459 2.80679 50.7077 4.2926C50.3992 4.91373 50.1758 5.46895 50.2114 5.52648C50.2533 5.59441 50.2346 5.60546 50.1578 5.55796C50.0786 5.50908 50.0545 5.52722 50.0849 5.61282C50.1287 5.73625 49.9223 6.24693 49.8286 6.24693C49.8033 6.24693 49.8492 6.11806 49.9306 5.96066C50.012 5.80317 50.0335 5.70229 49.9783 5.73635C49.8139 5.83806 49.5907 6.3363 49.6597 6.44796C49.6978 6.50944 49.6825 6.52601 49.6221 6.48873C49.5661 6.45412 49.4738 6.51303 49.4167 6.61953C49.2881 6.86014 48.9085 7.24765 48.9772 7.06835C49.0048 6.99627 49.1343 6.60591 49.265 6.2009C49.3957 5.7959 49.6056 5.15388 49.7316 4.77419C50.5308 2.36645 52.1805 -0.526838 52.1805 0.47941ZM42.0696 1.48354C41.6859 2.77798 40.8102 5.99997 40.7248 6.43102C40.6014 7.05417 40.5862 7.07534 40.2625 7.07534C40.0931 7.07534 39.6299 7.13747 39.2331 7.21341C38.2664 7.39842 38.2806 7.40036 38.3854 7.09835C38.4337 6.95918 38.6746 6.16178 38.9208 5.32647C39.1669 4.49115 39.5174 3.33836 39.6994 2.76464C39.8815 2.19101 40.0304 1.65944 40.0304 1.58341C40.0304 1.38698 39.8064 1.48603 39.7705 1.69828C39.754 1.7953 39.4974 2.62031 39.2002 3.53157C38.9029 4.44282 38.5499 5.56118 38.4157 6.01681C37.9829 7.48614 37.9865 7.47979 37.535 7.55693C37.1219 7.62743 35.9985 7.94361 35.6352 8.09162C35.4065 8.18477 35.3511 8.45603 35.5608 8.45603C35.6338 8.45603 35.7155 8.42032 35.7425 8.3766C35.7972 8.28805 37.8127 7.68036 37.8681 7.73568C37.8873 7.75501 37.7573 8.34954 37.579 9.05691C37.2636 10.3077 36.8794 12.1065 36.7783 12.8052C36.7422 13.055 36.762 13.1504 36.8499 13.1504C36.9857 13.1504 37.0818 12.8711 37.0837 12.4707C37.0844 12.3247 37.1246 12.0555 37.1732 11.8724C37.2217 11.6893 37.4739 10.6697 37.7336 9.60661C37.9933 8.54348 38.2134 7.66573 38.2229 7.65606C38.2323 7.6463 38.6739 7.55048 39.2043 7.44307C39.7346 7.33565 40.246 7.22528 40.3408 7.19785C40.5478 7.13784 40.5343 7.30012 40.2209 8.64013C40.1084 9.12107 39.9369 9.97019 39.8399 10.5271C39.7429 11.0839 39.6025 11.8709 39.528 12.2759C39.3552 13.2151 39.3434 13.9161 39.5012 13.8643C39.5645 13.8436 39.6276 13.6848 39.6416 13.5115C39.694 12.8621 40.0729 10.7129 40.4945 8.67326C40.833 7.03595 40.7964 7.07534 41.9763 7.07534C42.1793 7.07534 42.3316 7.0307 42.3316 6.97114C42.3316 6.89898 42.1197 6.88066 41.6412 6.91132C41.0194 6.95126 40.9509 6.93911 40.9509 6.78853C40.9509 6.53586 41.4514 4.51775 41.9574 2.7304C42.4649 0.937983 42.572 0.448022 42.4563 0.448022C42.4125 0.448022 42.2384 0.914051 42.0696 1.48354ZM22.7863 1.25343C22.1535 2.52182 21.1939 5.37249 20.8419 7.02932C20.5468 8.41866 20.5163 8.47904 19.6605 9.36655C18.6784 10.3851 17.8473 10.406 17.8473 9.41212C17.8473 8.52092 17.3151 8.64988 16.5651 9.72286C16.037 10.4783 16.0223 10.4204 16.4328 9.20464C16.6225 8.64335 16.7508 8.15725 16.7181 8.12457C16.5938 8.00022 16.3746 8.18413 16.3746 8.41268C16.3746 9.04366 14.4469 10.5259 14.0903 10.1692C13.9001 9.97894 13.9138 9.07201 14.1143 8.59235C14.3263 8.085 14.0049 7.82561 13.7789 8.32164C13.6901 8.51641 13.6292 8.54596 13.4137 8.49865C12.8893 8.3835 12.0484 9.33213 12.0484 10.0389C12.0484 10.7071 12.5816 10.426 13.4009 9.32559C13.603 9.05433 13.603 9.05433 13.608 9.4412C13.6252 10.7356 14.4736 10.8094 15.6543 9.61913C16.1424 9.12714 16.1585 9.13625 15.9666 9.79696C15.6232 10.9798 15.8161 11.7706 16.2066 10.7802C16.6525 9.64904 17.5151 8.86619 17.611 9.50582C17.7861 10.6731 18.6624 10.6715 19.7855 9.50186C20.4376 8.82284 20.4057 8.70318 20.1071 10.7112C19.9564 11.7248 19.9177 13.4265 20.0455 13.4265C20.09 13.4265 20.1527 13.0434 20.1847 12.5751C20.3462 10.2155 20.3433 10.2256 20.7626 10.5454C21.4147 11.0428 22.0337 10.8357 23.0709 9.77275C23.8907 8.93274 23.9584 8.67575 23.1572 9.44507C22.0663 10.4926 21.223 10.849 20.967 10.3706C20.8731 10.1951 20.8879 10.1499 21.0789 10.0307C21.873 9.53463 22.4246 8.70262 22.1243 8.45346C21.8663 8.23936 20.7928 9.17574 20.7928 9.61489C20.7928 9.68623 20.7514 9.74468 20.7007 9.74468C20.5082 9.74468 20.813 8.20889 21.1714 7.37357C22.1231 5.15508 23.5472 0.936234 23.4159 0.723884C23.2794 0.503065 23.0748 0.675099 22.7863 1.25343ZM16.9729 1.33838C16.4343 1.38984 13.4092 1.82973 13.2307 1.88256C13.1468 1.90741 12.7119 1.9874 12.2642 2.06048C11.1143 2.24798 9.81381 2.52338 9.0351 2.7443C8.22666 2.97358 8.24948 2.97303 8.3164 2.76215C8.37283 2.5846 8.08849 2.25295 8.02903 2.42701C7.93165 2.71236 7.61234 3.11736 7.48476 3.11736C7.4033 3.11736 7.06098 3.19762 6.724 3.29565C6.38711 3.39368 5.66741 3.58606 5.12461 3.72302C4.58191 3.86008 4.15343 3.99723 4.17239 4.02797C4.19136 4.05871 4.09692 4.0878 3.96262 4.09268C3.82823 4.09756 3.20048 4.2151 2.56766 4.35391C0.623279 4.78036 -0.468388 4.41107 0.450601 3.6377C0.802125 3.34195 0.806267 3.24411 0.458425 3.44955C0.00205989 3.71916 -0.145029 4.25496 0.161208 4.53211C0.658441 4.98203 2.18714 4.85749 4.50063 4.17856C8.17336 3.1007 7.83141 2.90344 7.23173 5.75347C6.95624 7.06273 6.68093 8.3824 6.61981 8.68615C6.5088 9.23842 6.5088 9.23842 5.71177 9.43596C4.58844 9.7143 4.36449 9.81077 4.49004 9.962C4.57298 10.062 4.75054 10.0288 5.46362 9.78049C6.24766 9.50729 6.54479 9.49026 6.39862 9.72691C6.33879 9.82365 5.64983 13.9933 5.46794 15.3595C5.39044 15.9417 5.30217 16.5878 5.2717 16.7954C5.2289 17.0879 5.24878 17.1852 5.36006 17.2279C5.55115 17.3013 5.57508 17.2045 5.74224 15.6817C5.82002 14.9729 5.94041 14.0824 6.00973 13.7027C6.07894 13.323 6.1373 12.9502 6.13942 12.8742C6.14605 12.6283 6.77914 9.35799 6.82489 9.33323C6.87017 9.30875 8.5132 8.9783 8.90034 8.9159C9.3441 8.84428 9.64647 8.64013 9.30866 8.64013C9.10754 8.64013 7.48403 8.95004 7.10093 9.06151C6.78945 9.15218 6.78208 9.20363 7.48329 6.385C7.71 5.47374 7.96745 4.40803 8.05536 4.01674C8.25583 3.12445 8.24829 3.13531 8.73981 3.03507C8.96486 2.98914 9.6253 2.84232 10.2075 2.70877C10.7897 2.57521 11.5767 2.40649 11.9564 2.33377C15.1043 1.73096 16.3469 1.55257 17.3979 1.55257C17.9494 1.55257 18.1292 1.52321 18.101 1.43752C18.0616 1.31777 17.6069 1.27782 16.9729 1.33838ZM22.9104 1.96411C22.8567 2.20398 22.6275 2.86856 22.401 3.44099C22.1747 4.01352 21.9894 4.52272 21.9894 4.57261C21.9894 4.6225 21.8831 4.84359 21.7531 5.06395C21.6231 5.28431 21.5443 5.36715 21.5781 5.24804C21.9187 4.04758 22.2401 3.09628 22.5315 2.42701C22.5756 2.32576 22.6853 2.06647 22.7752 1.8508C22.9816 1.3555 23.0365 1.40153 22.9104 1.96411ZM31.2742 2.28011C30.7616 2.48068 29.9756 2.93529 29.5456 3.28C29.2319 3.53157 29.2319 3.53157 29.3074 3.16338C29.4165 2.63163 29.4134 2.35789 29.298 2.31794C29.2377 2.29704 29.1312 2.58671 29.034 3.03682C28.8797 3.751 28.8422 3.82041 28.3229 4.35151C27.1911 5.50927 26.2428 7.18184 26.5947 7.39934C26.6441 7.4299 26.6837 7.33795 26.6837 7.19316C26.6837 6.89125 27.5232 5.57922 28.2603 4.72899C28.8585 4.03911 28.8477 4.20258 28.0983 7.20089C27.3254 10.2927 26.9718 11.8776 27.0242 12.0144C27.1206 12.2656 27.3234 12.1283 27.4194 11.7467C27.6063 11.0041 28.2677 9.14518 28.4878 8.74358C28.7231 8.31465 28.7679 8.13249 28.615 8.22702C28.4873 8.30591 28.0504 9.17399 27.9669 9.51456C27.8992 9.7907 27.8992 9.7907 27.8904 9.51456C27.8855 9.36269 28.0007 8.82422 28.1464 8.31796C28.3875 7.48062 29.0445 4.71712 29.1468 4.11017C29.171 3.96676 29.3225 3.75846 29.5028 3.62094C29.6755 3.48922 29.7889 3.33634 29.7548 3.2812C29.718 3.22165 29.7354 3.20729 29.7979 3.24595C29.8557 3.28166 30.1914 3.14249 30.5438 2.93667C33.1571 1.41046 34.1948 3.14847 32.6852 6.52306C32.6059 6.70025 32.5455 6.94878 32.551 7.07534C32.5566 7.2019 32.5392 7.25143 32.5125 7.18534C32.485 7.11731 32.2819 7.37698 32.0444 7.78364C31.8138 8.17879 31.4889 8.6809 31.3228 8.89951C31.1554 9.11959 31.0437 9.35753 31.0725 9.43255C31.1011 9.50711 31.0835 9.55608 31.0333 9.54135C30.9831 9.52662 30.7019 9.7838 30.4083 10.1129C28.8581 11.8504 26.8978 13.2216 25.8899 13.2734C25.5674 13.29 25.5617 13.4279 25.8838 13.4242C27.5086 13.406 30.5079 10.8858 32.125 8.17989C34.3725 4.41917 33.9151 1.24717 31.2742 2.28011ZM51.9044 2.15087C51.9044 2.17619 51.8837 2.1969 51.8584 2.1969C51.833 2.1969 51.8123 2.17619 51.8123 2.15087C51.8123 2.12556 51.833 2.10485 51.8584 2.10485C51.8837 2.10485 51.9044 2.12556 51.9044 2.15087ZM51.7817 2.44238C51.7479 2.47607 51.7203 2.44846 51.7203 2.38099C51.7203 2.31352 51.7479 2.28591 51.7817 2.31959C51.8154 2.35338 51.8154 2.4086 51.7817 2.44238ZM51.6718 2.77219C51.5953 3.0324 50.9923 4.23645 50.8766 4.35998C50.8292 4.41061 50.9524 4.09995 51.1506 3.66964C51.3487 3.23932 51.5359 2.8148 51.5667 2.72616C51.6489 2.48878 51.743 2.52992 51.6718 2.77219ZM50.7998 4.54407C50.7998 4.56939 50.7791 4.5901 50.7538 4.5901C50.7285 4.5901 50.7078 4.56939 50.7078 4.54407C50.7078 4.51876 50.7285 4.49805 50.7538 4.49805C50.7791 4.49805 50.7998 4.51876 50.7998 4.54407ZM50.7078 4.72817C50.7078 4.75348 50.6871 4.77419 50.6618 4.77419C50.6364 4.77419 50.6157 4.75348 50.6157 4.72817C50.6157 4.70285 50.6364 4.68214 50.6618 4.68214C50.6871 4.68214 50.7078 4.70285 50.7078 4.72817ZM50.6157 4.91226C50.6157 4.93757 50.595 4.95828 50.5697 4.95828C50.5444 4.95828 50.5237 4.93757 50.5237 4.91226C50.5237 4.88694 50.5444 4.86623 50.5697 4.86623C50.595 4.86623 50.6157 4.88694 50.6157 4.91226ZM32.4826 7.3975C32.4826 7.42282 32.4619 7.44353 32.4366 7.44353C32.4113 7.44353 32.3906 7.42282 32.3906 7.3975C32.3906 7.37219 32.4113 7.35148 32.4366 7.35148C32.4619 7.35148 32.4826 7.37219 32.4826 7.3975ZM32.2348 7.8188C32.1433 7.97454 32.0096 8.15062 31.9377 8.20999C31.8658 8.26936 31.9231 8.14197 32.065 7.92677C32.363 7.47501 32.4804 7.40026 32.2348 7.8188ZM54.8531 7.89768C54.8007 7.99562 54.7578 8.14234 54.7578 8.2238C54.7578 8.77967 52.3626 10.5285 51.6905 10.4634C51.236 10.4193 51.1791 9.52036 51.6297 9.50453C52.3838 9.47784 53.1418 8.00243 52.4428 7.92152C51.5651 7.8199 50.6284 10.0236 51.3185 10.5664C51.7097 10.8742 53.2071 10.4312 53.1217 10.033C53.1078 9.96817 53.1353 9.93917 53.183 9.96854C53.2809 10.0291 53.7473 9.66303 54.1464 9.21228C54.4697 8.84732 54.497 8.86122 54.3836 9.33305C53.9959 10.9465 54.026 11.6342 54.4504 10.8603C55.2686 9.36812 55.9541 8.59419 55.955 9.16175C55.9575 10.9421 57.1667 11.0542 59.5044 9.49091C60.9955 8.49377 62.765 8.14022 63.152 8.76209C63.1872 8.8186 63.2426 8.83839 63.275 8.8059C63.3721 8.70888 62.8783 8.43532 62.4629 8.35598C61.6025 8.19168 60.4521 8.54348 59.3601 9.30497C57.2512 10.7754 56.362 10.7775 56.2428 9.31234C56.1541 8.22159 55.7584 8.3534 54.8336 9.78196C54.64 10.0809 54.4817 10.2694 54.4817 10.201C54.4817 10.0149 54.9423 8.53924 55.0891 8.25473C55.2149 8.01099 55.1813 7.71966 55.0273 7.71966C54.9839 7.71966 54.9055 7.79974 54.8531 7.89768ZM9.70924 8.11086C9.69148 8.17419 9.63027 8.3916 9.57329 8.5941C9.40162 9.204 9.12144 10.6774 9.07284 11.2252C8.9841 12.2271 9.36269 12.21 9.66202 11.1988C10.2242 9.29927 11.1874 8.09236 11.6736 8.67823C11.8108 8.84355 11.9564 8.87052 11.9564 8.7307C11.9564 8.57275 11.3493 8.33472 11.1038 8.39629C10.6036 8.52185 10.0581 9.35652 9.53702 10.7939C9.4655 10.9914 9.38552 11.1156 9.35928 11.0701C9.29016 10.9498 9.77911 8.92271 9.96099 8.57569C10.0459 8.4136 10.1154 8.2169 10.1154 8.13847C10.1154 7.96782 9.75619 7.94343 9.70924 8.11086ZM52.4567 8.32643C52.4567 8.59567 51.7762 9.28169 51.5069 9.2838C51.4171 9.28454 51.7481 8.78832 52.0745 8.43302C52.3381 8.14611 52.4567 8.11298 52.4567 8.32643ZM31.6677 8.75638C31.5623 8.92694 31.3844 9.14656 31.2722 9.2445C31.1602 9.34244 31.221 9.21983 31.4074 8.97204C31.5938 8.72435 31.7463 8.47923 31.7463 8.4275C31.7463 8.37568 31.7717 8.35874 31.8028 8.38985C31.8339 8.42087 31.7731 8.58591 31.6677 8.75638ZM13.4291 8.78427C13.4291 9.02681 12.5296 10.1129 12.3287 10.1129C11.9546 10.1129 12.9743 8.75058 13.3601 8.73493C13.398 8.73346 13.4291 8.75564 13.4291 8.78427ZM21.9894 8.80553C21.9894 8.87816 21.4489 9.41156 21.138 9.64582C20.8012 9.89959 20.9715 9.47351 21.3562 9.10026C21.7063 8.76052 21.9894 8.62871 21.9894 8.80553ZM30.6424 10.047C30.2377 10.435 30.2377 10.435 30.6009 10.015C30.8005 9.78398 30.9826 9.60937 31.0054 9.62695C31.0282 9.64453 30.8648 9.83359 30.6424 10.047ZM6.58658 9.95178C6.56108 10.0151 6.54019 9.96329 6.54019 9.83672C6.54019 9.71016 6.56108 9.65843 6.58658 9.72167C6.61217 9.78499 6.61217 9.88855 6.58658 9.95178ZM33.2356 10.356C33.0249 10.7326 33.3731 11.0424 33.7382 10.8032C33.9857 10.641 33.9901 10.6258 33.8601 10.3829C33.7433 10.1648 33.3521 10.1479 33.2356 10.356ZM30.2735 10.5076C30.2735 10.5221 30.056 10.7395 29.7903 10.9908C29.3071 11.4475 29.3071 11.4475 29.7638 10.9643C30.1883 10.5153 30.2735 10.4388 30.2735 10.5076ZM6.31237 10.8665C6.28301 10.9399 6.26119 10.9181 6.25678 10.8108C6.25282 10.7138 6.27454 10.6595 6.3051 10.6901C6.33566 10.7206 6.33897 10.8001 6.31237 10.8665ZM44.0914 11.5823C44.0427 11.7991 44.0242 12.0438 44.0504 12.1262C44.0867 12.2409 44.0773 12.2473 44.0102 12.1537C43.9475 12.0661 43.8827 12.1897 43.782 12.5898C43.7046 12.897 43.678 13.1255 43.7229 13.0978C43.8315 13.0307 43.8256 13.154 43.7033 13.5048C43.6478 13.6641 43.5698 13.7744 43.53 13.7498C43.4309 13.6886 43.0373 14.7657 43.0373 15.098C43.0373 15.2599 43.0093 15.3215 42.9669 15.2528C42.8924 15.1323 42.8437 15.2912 42.7569 15.9383C42.7312 16.1301 42.603 16.4144 42.472 16.5701C42.3343 16.7338 42.2546 16.9188 42.2831 17.0086C42.3102 17.0941 42.2678 17.2447 42.1889 17.3433C42.0499 17.5168 42.0485 17.5161 42.1424 17.3215C42.1958 17.2109 42.2384 17.0866 42.2371 17.0454C42.2357 17.0041 42.0591 17.3224 41.8447 17.7527C40.6037 20.243 39.8671 20.4821 40.1279 18.31C40.366 16.3277 41.3735 14.2874 43.2262 12.0353C44.0689 11.011 44.2399 10.9215 44.0914 11.5823ZM6.21839 11.7007C6.1929 11.764 6.172 11.7122 6.172 11.5856C6.172 11.459 6.1929 11.4073 6.21839 11.4705C6.24398 11.5339 6.24398 11.6374 6.21839 11.7007ZM6.12828 12.0631C6.09892 12.1365 6.0771 12.1147 6.07268 12.0074C6.06873 11.9104 6.09045 11.8561 6.12101 11.8867C6.15157 11.9172 6.15488 11.9967 6.12828 12.0631ZM39.7236 12.0152C39.6899 12.0489 39.6622 12.0213 39.6622 11.9538C39.6622 11.8863 39.6899 11.8587 39.7236 11.8924C39.7573 11.9262 39.7573 11.9814 39.7236 12.0152ZM5.94419 13.4438C5.91483 13.5172 5.89301 13.4954 5.88859 13.3881C5.88463 13.2911 5.90636 13.2368 5.93692 13.2674C5.96748 13.2979 5.97079 13.3774 5.94419 13.4438ZM43.5427 13.4265C43.5427 13.5531 43.5636 13.6049 43.5891 13.5416C43.6147 13.4783 43.6147 13.3748 43.5891 13.3115C43.5636 13.2482 43.5427 13.3 43.5427 13.4265ZM43.4975 14.1322C43.4637 14.1659 43.4361 14.1383 43.4361 14.0708C43.4361 14.0034 43.4637 13.9758 43.4975 14.0094C43.5312 14.0432 43.5312 14.0985 43.4975 14.1322ZM5.75862 14.3163C5.72484 14.35 5.69723 14.3224 5.69723 14.2549C5.69723 14.1875 5.72484 14.1599 5.75862 14.1935C5.79231 14.2273 5.79231 14.2826 5.75862 14.3163ZM43.3286 14.5358C43.2748 14.6902 43.2137 14.7996 43.1928 14.7787C43.1472 14.7331 43.3209 14.2549 43.383 14.2549C43.407 14.2549 43.3825 14.3813 43.3286 14.5358ZM42.5731 16.0534C42.5415 16.1356 42.5183 16.2513 42.5215 16.3105C42.5247 16.3696 42.567 16.3188 42.6155 16.1976C42.6641 16.0763 42.6872 15.9606 42.6671 15.9405C42.6469 15.9203 42.6046 15.9711 42.5731 16.0534Z" fill="#777777"></path></svg>