<svg xmlns="http://www.w3.org/2000/svg" width="45" height="45" viewBox="0 0 45 45" fill="none"><path d="M45 22.5C45 34.9264 34.9264 45 22.5 45C10.0736 45 0 34.9264 0 22.5C0 10.0736 10.0736 0 22.5 0C34.9264 0 45 10.0736 45 22.5Z" fill="black"></path><path d="M18.3693 30H15.2641V19.9856H18.3693V30ZM16.8148 18.6187C16.4574 18.6202 16.1076 18.5156 15.8097 18.3181C15.5117 18.1206 15.2788 17.8391 15.1406 17.5091C15.0024 17.1792 14.965 16.8156 15.0331 16.4644C15.1013 16.1132 15.2719 15.7901 15.5234 15.5359C15.7749 15.2818 16.0961 15.108 16.4463 15.0365C16.7964 14.965 17.1599 14.9991 17.4908 15.1343C17.8216 15.2696 18.105 15.5001 18.305 15.7965C18.505 16.093 18.6128 16.4422 18.6147 16.8C18.6157 17.2797 18.4269 17.7404 18.0896 18.0812C17.7524 18.422 17.294 18.6153 16.8148 18.6187ZM30 30H26.8966V25.125C26.8966 23.9625 26.8741 22.4719 25.2822 22.4719C23.6902 22.4719 23.4093 23.7356 23.4093 25.0406V30H20.3171V19.9856H23.2969V21.3506H23.34C23.7539 20.5631 24.7671 19.7325 26.2786 19.7325C29.4213 19.7325 30 21.8062 30 24.4987V30Z" fill="white"></path></svg>