<svg xmlns="http://www.w3.org/2000/svg" width="53" height="51" viewBox="0 0 53 51" fill="none"><path d="M43.601 42.9736C36.8443 42.3384 30.2534 46.0985 23.3744 49.2923C18.5011 51.5551 14.773 48.7577 14.578 43.3754C14.3581 37.2996 18.8062 26.0449 25.8655 23.4498C28.8073 22.3686 31.7792 21.9922 34.7958 22.9714C39.6269 24.5397 43.8293 27.2175 47.4863 30.6919C52.1878 35.1587 50.8745 40.7176 43.601 42.9736Z" fill="black"></path><path d="M25.5252 11.739C24.9507 9.66746 24.8254 7.5694 25.2854 5.45802C25.9588 2.36811 27.7851 0.407235 30.4732 0.0567121C33.4282 -0.328906 35.4599 1.29978 36.8345 3.61295C38.7955 6.91145 38.9224 10.4723 37.3417 13.9772C35.1358 18.8669 30.3221 19.2894 27.1199 14.9431C26.4006 13.967 25.7976 12.94 25.5252 11.739Z" fill="black"></path><path d="M21.4674 13.2547C22.0979 15.2105 22.2241 17.0107 21.7098 18.8546C20.843 21.9624 18.2058 23.5212 15.1332 22.6912C10.1614 21.3489 6.55208 15.3058 7.74423 10.3191C8.81047 5.85793 13.7736 4.16062 17.2708 7.09745C19.2815 8.78653 20.8338 10.8216 21.4674 13.2547Z" fill="black"></path><path d="M0.33753 29.9208C-1.07469 25.4705 2.11566 21.9755 6.7208 22.9282C10.105 23.6283 13.2713 27.3802 13.3948 30.8369C13.495 33.6422 11.5593 35.7145 8.69265 35.8712C5.11605 36.0664 1.46184 33.4642 0.33753 29.9208Z" fill="black"></path><path d="M52.5015 13.3352C53.7092 17.3572 50.9976 22.8021 47.302 23.7751C44.7626 24.4436 42.456 22.8862 41.5326 19.8796C40.2134 15.5827 42.4056 10.7063 46.1549 9.59985C49.0746 8.73768 51.5604 10.2007 52.5015 13.3352Z" fill="black"></path></svg>