<svg xmlns="http://www.w3.org/2000/svg" width="45" height="45" viewBox="0 0 45 45" fill="none"><path d="M45 22.5C45 34.9264 34.9264 45 22.5 45C10.0736 45 0 34.9264 0 22.5C0 10.0736 10.0736 0 22.5 0C34.9264 0 45 10.0736 45 22.5Z" fill="black"></path><path d="M21.3695 23.4377V30H24.2867V23.4371H26.4614L26.8752 20.7228H24.2867V18.9619C24.2867 18.2189 24.6476 17.4946 25.8068 17.4946H26.9847V15.1836C26.9847 15.1836 25.9157 15 24.8952 15C22.7628 15 21.3695 16.3005 21.3695 18.6539V20.7222H19V23.4377H21.3695Z" fill="white"></path></svg>