<?xml version="1.0" encoding="UTF-8"?>
<svg id="Layer_1" data-name="Layer 1" xmlns="http://www.w3.org/2000/svg" viewBox="0 0 64 48">
  <path d="M36,18h-8c-3.314,0-6,2.686-6,6s2.686,6,6,6h8c3.314,0,6-2.686,6-6s-2.686-6-6-6ZM36,28h-8c-2.206,0-4-1.794-4-4s1.794-4,4-4h8c2.206,0,4,1.794,4,4s-1.794,4-4,4Z"/>
  <path d="M35.876,20.953c-1.657,0-3,1.343-3,3s1.343,3,3,3,3-1.343,3-3-1.343-3-3-3Z"/>
  <rect x="44" y="21.931" width="15.07" height="4.114" rx="1" ry="1"/>
  <rect x="4.956" y="21.931" width="15.07" height="4.114" rx="1" ry="1"/>
</svg>