<?xml version="1.0" encoding="UTF-8"?>
<svg id="Layer_1" data-name="Layer 1" xmlns="http://www.w3.org/2000/svg" viewBox="0 0 64 48">
  <path d="M28.044,18.002H9.954c-2.18,0-3.95,1.77-3.95,3.95v4.09c0,2.19,1.77,3.96,3.95,3.96h18.09c2.19,0,3.96-1.77,3.96-3.96v-4.09c0-2.18-1.77-3.95-3.96-3.95ZM30.004,25.042c0,.55-.45,1-1,1H8.864c-.56,0-1-.45-1-1v-2.11c0-.55.44-1,1-1h20.14c.55,0,1,.45,1,1v2.11Z"/>
  <path d="M53.995,14.047H10.005c-4.421,0-8.005,3.584-8.005,8.005v3.895c0,4.421,3.584,8.005,8.005,8.005h43.989c4.421,0,8.005-3.584,8.005-8.005v-3.895c0-4.421-3.584-8.005-8.005-8.005ZM60,25.948c0,3.311-2.694,6.005-6.005,6.005H10.005c-3.311,0-6.005-2.694-6.005-6.005v-3.895c0-3.311,2.694-6.005,6.005-6.005h43.989c3.311,0,6.005,2.694,6.005,6.005v3.895Z"/>
  <rect x="33.93" y="21.931" width="22.141" height="4.114" rx="1" ry="1"/>
</svg>