<?xml version="1.0" encoding="UTF-8"?>
<svg id="Layer_1" data-name="Layer 1" xmlns="http://www.w3.org/2000/svg" viewBox="0 0 64 48">
  <path d="M55,21.304h-14.947c.221-.546.349-1.14.349-1.765v-.235h14.598c.552,0,1-.448,1-1s-.448-1-1-1h-14.598v-3.098c0-1.384-1.125-2.51-2.51-2.51h-2.51c-1.384,0-2.51,1.125-2.51,2.51v2.51c0,.204.031.399.077.589h-1.822v-3.098c0-1.384-1.125-2.51-2.51-2.51h-2.51c-1.384,0-2.51,1.125-2.51,2.51v2.51c0,.204.031.399.077.589h-14.674c-.552,0-1,.448-1,1s.448,1,1,1h19.617v.235c0,.726-.358,1.365-.901,1.765H9.001c-.552,0-1,.448-1,1s.448,1,1,1h15.915c.142.537.609.941,1.192.941h.314c1.053,0,2.014-.357,2.798-.941h4.971c.142.537.609.941,1.192.941h.314c1.053,0,2.014-.357,2.798-.941h16.507c.552,0,1-.448,1-1s-.448-1-1-1ZM31.128,19.539v-.235h6.764v.235c0,.726-.358,1.365-.901,1.765h-6.212c.221-.546.349-1.14.349-1.765Z"/>
  <path d="M55,25.304H9.001c-.552,0-1,.448-1,1s.448,1,1,1h45.999c.552,0,1-.448,1-1s-.448-1-1-1Z"/>
  <path d="M55,29.304H9.001c-.552,0-1,.448-1,1s.448,1,1,1h45.999c.552,0,1-.448,1-1s-.448-1-1-1Z"/>
  <rect x="24" y="33.304" width="16" height="3" rx="1" ry="1"/>
</svg>