<?xml version="1.0" encoding="UTF-8"?>
<svg id="Layer_1" data-name="Layer 1" xmlns="http://www.w3.org/2000/svg" viewBox="0 0 64 48">
  <path d="M20.001,16.823h35c.552,0,1-.448,1-1s-.448-1-1-1H20.001c-.552,0-1,.448-1,1s.448,1,1,1Z"/>
  <path d="M55,18.823H20.001c-.552,0-1,.448-1,1s.448,1,1,1h35c.552,0,1-.448,1-1s-.448-1-1-1Z"/>
  <path d="M55,22.823H9.001c-.552,0-1,.448-1,1s.448,1,1,1h45.999c.552,0,1-.448,1-1s-.448-1-1-1Z"/>
  <path d="M55,26.823H9.001c-.552,0-1,.448-1,1s.448,1,1,1h45.999c.552,0,1-.448,1-1s-.448-1-1-1Z"/>
  <rect x="8" y="30.823" width="15" height="3" rx="1" ry="1"/>
  <path d="M14.23,18.157h1.327v.166c0,.641-.52,1.161-1.161,1.161h-.166c-.367,0-.663.296-.663.663s.296.663.663.663h.166c1.375,0,2.488-1.113,2.488-2.488v-2.82c0-.732-.595-1.327-1.327-1.327h-1.327c-.732,0-1.327.595-1.327,1.327v1.327c0,.732.595,1.327,1.327,1.327Z"/>
  <path d="M9.327,18.157h1.327v.166c0,.641-.52,1.161-1.161,1.161h-.166c-.367,0-.663.296-.663.663s.296.663.663.663h.166c1.375,0,2.488-1.113,2.488-2.488v-2.82c0-.732-.595-1.327-1.327-1.327h-1.327c-.732,0-1.327.595-1.327,1.327v1.327c0,.732.595,1.327,1.327,1.327Z"/>
</svg>