<?xml version="1.0" encoding="UTF-8"?>
<svg id="Layer_1" data-name="Layer 1" xmlns="http://www.w3.org/2000/svg" viewBox="0 0 64 48">
  <path d="M58.004,14.002H6.004c-.56,0-1,.45-1,1v18c0,.55.44,1,1,1h52c.55,0,1-.45,1-1V15.002c0-.55-.45-1-1-1ZM24.004,17.752c0-.55.44-1,1-1h14c.55,0,1,.45,1,1v1c0,.55-.45,1-1,1h-14c-.56,0-1-.45-1-1v-1ZM22.004,22.012h20c.27,0,.5.22.5.5s-.23.5-.5.5h-20c-.28,0-.5-.22-.5-.5s.22-.5.5-.5ZM36.004,31.002h-8c-.56,0-1-.45-1-1s.44-1,1-1h8c.55,0,1,.45,1,1s-.45,1-1,1ZM45.004,26.992h-26c-.28,0-.5-.23-.5-.5,0-.28.22-.5.5-.5h26c.27,0,.5.22.5.5,0,.27-.23.5-.5.5ZM47.004,25.052h-30c-.28,0-.5-.23-.5-.5,0-.28.22-.5.5-.5h30c.27,0,.5.22.5.5,0,.27-.23.5-.5.5Z"/>
</svg>