<?xml version="1.0" encoding="UTF-8"?>
<svg id="Layer_1" data-name="Layer 1" xmlns="http://www.w3.org/2000/svg" viewBox="0 0 64 48">
  <path d="M58,14H6c-.276,0-.526.112-.707.293s-.293.431-.293.707v18c0,.276.112.526.293.707s.431.293.707.293h52c.552,0,1-.448,1-1V15c0-.552-.448-1-1-1ZM58,33h-26V15h26v18Z"/>
  <rect x="34" y="16.75" width="16" height="3" rx="1" ry="1"/>
  <path d="M35,31h8c.552,0,1-.448,1-1s-.448-1-1-1h-8c-.552,0-1,.448-1,1s.448,1,1,1Z"/>
  <path d="M34.5,22.512c0,.276.224.5.5.5h20c.276,0,.5-.224.5-.5s-.224-.5-.5-.5h-20c-.276,0-.5.224-.5.5Z"/>
  <path d="M55,24.047h-20c-.276,0-.5.224-.5.5s.224.5.5.5h20c.276,0,.5-.224.5-.5s-.224-.5-.5-.5Z"/>
  <path d="M55,25.989h-20c-.276,0-.5.224-.5.5s.224.5.5.5h20c.276,0,.5-.224.5-.5s-.224-.5-.5-.5Z"/>
</svg>