<?xml version="1.0" encoding="UTF-8"?>
<svg id="Layer_1" data-name="Layer 1" xmlns="http://www.w3.org/2000/svg" viewBox="0 0 64 48">
  <path d="M60,13c.551,0,1,.448,1,1v20c0,.552-.449,1-1,1h-14c-.551,0-1-.448-1-1V14c0-.552.449-1,1-1h14M60,12h-14c-1.105,0-2,.896-2,2v20c0,1.104.895,2,2,2h14c1.105,0,2-.896,2-2V14c0-1.104-.895-2-2-2h0Z"/>
  <path d="M39,13c.551,0,1,.448,1,1v20c0,.552-.449,1-1,1h-14c-.551,0-1-.448-1-1V14c0-.552.449-1,1-1h14M39,12h-14c-1.104,0-2,.896-2,2v20c0,1.104.896,2,2,2h14c1.105,0,2-.896,2-2V14c0-1.104-.895-2-2-2h0Z"/>
  <path d="M18,13c.551,0,1,.448,1,1v20c0,.552-.449,1-1,1H3.999c-.551,0-1-.448-1-1V14c0-.552.449-1,1-1h14M18,12H3.999c-1.104,0-2,.896-2,2v20c0,1.104.896,2,2,2h14c1.105,0,2-.896,2-2V14c0-1.104-.895-2-2-2h0Z"/>
  <path d="M19,23.953H2.999c-.552,0-1-.448-1-1v-8.953c0-1.105.895-2,2-2h14c1.105,0,2,.895,2,2v8.953c0,.552-.448,1-1,1Z"/>
  <path d="M40.001,23.953h-16c-.552,0-1-.448-1-1v-8.953c0-1.105.895-2,2-2h14c1.105,0,2,.895,2,2v8.953c0,.552-.448,1-1,1Z"/>
  <path d="M40.001,23.953h-16c-.552,0-1-.448-1-1v-8.953c0-1.105.895-2,2-2h14c1.105,0,2,.895,2,2v8.953c0,.552-.448,1-1,1Z"/>
  <path d="M61.002,23.953h-16c-.552,0-1-.448-1-1v-8.953c0-1.105.895-2,2-2h14c1.105,0,2,.895,2,2v8.953c0,.552-.448,1-1,1Z"/>
  <path d="M15.6,25.087H6.4c-.552,0-1,.448-1,1s.448,1,1,1h9.2c.552,0,1-.448,1-1s-.448-1-1-1h0Z"/>
  <path d="M13.5,32h-5c-.552,0-1,.448-1,1s.448,1,1,1h5c.552,0,1-.448,1-1s-.448-1-1-1h0Z"/>
  <path d="M18,29.009H4c-.276,0-.5-.224-.5-.5s.224-.5.5-.5h14c.276,0,.5.224.5.5s-.224.5-.5.5Z"/>
  <path d="M18,31.043H4c-.276,0-.5-.224-.5-.5s.224-.5.5-.5h14c.276,0,.5.224.5.5s-.224.5-.5.5Z"/>
  <path d="M36.601,25.087h-9.2c-.552,0-1,.448-1,1s.448,1,1,1h9.2c.552,0,1-.448,1-1s-.448-1-1-1h0Z"/>
  <path d="M34.5,32h-5c-.552,0-1,.448-1,1s.448,1,1,1h5c.552,0,1-.448,1-1s-.448-1-1-1h0Z"/>
  <path d="M39,29.009h-14c-.276,0-.5-.224-.5-.5s.224-.5.5-.5h14c.276,0,.5.224.5.5s-.224.5-.5.5Z"/>
  <path d="M39,31.043h-14c-.276,0-.5-.224-.5-.5s.224-.5.5-.5h14c.276,0,.5.224.5.5s-.224.5-.5.5Z"/>
  <path d="M57.601,25.087h-9.2c-.552,0-1,.448-1,1s.448,1,1,1h9.2c.552,0,1-.448,1-1s-.448-1-1-1h0Z"/>
  <path d="M55.501,32h-5c-.552,0-1,.448-1,1s.448,1,1,1h5c.552,0,1-.448,1-1s-.448-1-1-1h0Z"/>
  <path d="M60.001,29.009h-14c-.276,0-.5-.224-.5-.5s.224-.5.5-.5h14c.276,0,.5.224.5.5s-.224.5-.5.5Z"/>
  <path d="M60.001,31.043h-14c-.276,0-.5-.224-.5-.5s.224-.5.5-.5h14c.276,0,.5.224.5.5s-.224.5-.5.5Z"/>
  <g>
    <path d="M33.5,38c-.552,0-1,.448-1,1s.448,1,1,1,1-.448,1-1-.448-1-1-1h0Z"/>
    <path d="M36.5,38c-.552,0-1,.448-1,1s.448,1,1,1,1-.448,1-1-.448-1-1-1h0Z"/>
    <g>
      <path d="M30.5,38c-.552,0-1,.448-1,1s.448,1,1,1,1-.448,1-1-.448-1-1-1h0Z"/>
      <path d="M27.5,38c-.552,0-1,.448-1,1s.448,1,1,1,1-.448,1-1-.448-1-1-1h0Z"/>
      <polygon points="30.5 38 27.5 38 27.5 40 30.5 40 30.5 38 30.5 38"/>
    </g>
  </g>
</svg>