<?xml version="1.0" encoding="UTF-8"?>
<svg id="Layer_1" data-name="Layer 1" xmlns="http://www.w3.org/2000/svg" viewBox="0 0 64 48">
  <g>
    <path d="M60.004,14.049h-14c-1.11,0-2,.89-2,2v15.9c0,1.11.89,2,2,2h14c1.1,0,2-.89,2-2v-15.9c0-1.11-.9-2-2-2ZM48.404,19.999h9.2c.55,0,1,.45,1,1s-.45,1-1,1h-9.2c-.56,0-1-.45-1-1s.44-1,1-1ZM55.504,28.909h-5c-.56,0-1-.44-1-1,0-.55.44-1,1-1h5c.55,0,1,.45,1,1,0,.56-.45,1-1,1ZM60.004,25.959h-14c-.28,0-.5-.23-.5-.5,0-.28.22-.5.5-.5h14c.27,0,.5.22.5.5,0,.27-.23.5-.5.5ZM60.004,23.919h-14c-.28,0-.5-.22-.5-.5,0-.27.22-.5.5-.5h14c.27,0,.5.23.5.5,0,.28-.23.5-.5.5Z"/>
    <path d="M39.004,14.049h-14c-1.11,0-2,.89-2,2v15.9c0,1.11.89,2,2,2h14c1.1,0,2-.89,2-2v-15.9c0-1.11-.9-2-2-2ZM27.404,19.999h9.2c.55,0,1,.45,1,1s-.45,1-1,1h-9.2c-.56,0-1-.45-1-1s.44-1,1-1ZM34.504,28.909h-5c-.56,0-1-.44-1-1,0-.55.44-1,1-1h5c.55,0,1,.45,1,1,0,.56-.45,1-1,1ZM39.004,25.959h-14c-.28,0-.5-.23-.5-.5,0-.28.22-.5.5-.5h14c.27,0,.5.22.5.5,0,.27-.23.5-.5.5ZM39.004,23.919h-14c-.28,0-.5-.22-.5-.5,0-.27.22-.5.5-.5h14c.27,0,.5.23.5.5,0,.28-.23.5-.5.5Z"/>
    <path d="M18.004,14.049H4.004c-1.11,0-2,.89-2,2v15.9c0,1.11.89,2,2,2h14c1.1,0,2-.89,2-2v-15.9c0-1.11-.9-2-2-2ZM6.404,19.999h9.2c.55,0,1,.45,1,1s-.45,1-1,1H6.404c-.56,0-1-.45-1-1s.44-1,1-1ZM13.504,28.909h-5c-.56,0-1-.44-1-1,0-.55.44-1,1-1h5c.55,0,1,.45,1,1,0,.56-.45,1-1,1ZM18.004,25.959H4.004c-.28,0-.5-.23-.5-.5,0-.28.22-.5.5-.5h14c.27,0,.5.22.5.5,0,.27-.23.5-.5.5ZM18.004,23.919H4.004c-.28,0-.5-.22-.5-.5,0-.27.22-.5.5-.5h14c.27,0,.5.23.5.5,0,.28-.23.5-.5.5Z"/>
  </g>
  <g>
    <path d="M33.5,38c-.552,0-1,.448-1,1s.448,1,1,1,1-.448,1-1-.448-1-1-1h0Z"/>
    <path d="M36.5,38c-.552,0-1,.448-1,1s.448,1,1,1,1-.448,1-1-.448-1-1-1h0Z"/>
    <g>
      <path d="M30.5,38c-.552,0-1,.448-1,1s.448,1,1,1,1-.448,1-1-.448-1-1-1h0Z"/>
      <path d="M27.5,38c-.552,0-1,.448-1,1s.448,1,1,1,1-.448,1-1-.448-1-1-1h0Z"/>
      <polygon points="30.5 38 27.5 38 27.5 40 30.5 40 30.5 38 30.5 38"/>
    </g>
  </g>
</svg>