<?xml version="1.0" encoding="UTF-8"?>
<svg id="Layer_1" data-name="Layer 1" xmlns="http://www.w3.org/2000/svg" viewBox="0 0 64 48">
  <path d="M37.492,7.193h-12c-1.105,0-2,.896-2,2v11.742c0,1.105.895,2,2,2h12c1.105,0,2-.895,2-2v-11.742c0-1.104-.895-2-2-2ZM38.492,20.936c0,.552-.449,1-1,1h-12c-.551,0-1-.448-1-1v-11.742c0-.552.449-1,1-1h12c.551,0,1,.448,1,1v11.742Z"/>
  <path d="M19.492,7.193H6.992c-1.105,0-2,.896-2,2v11.742c0,1.105.895,2,2,2h12.5c1.105,0,2-.895,2-2v-11.742c0-1.104-.895-2-2-2ZM20.492,20.936c0,.552-.449,1-1,1H6.992c-.551,0-1-.448-1-1v-11.742c0-.552.449-1,1-1h12.5c.551,0,1,.448,1,1v11.742Z"/>
  <rect x="41.492" y="7.193" width="17.517" height="15.742" rx="2" ry="2"/>
  <rect x="23.492" y="25.064" width="16" height="15.742" rx="2" ry="2"/>
  <path d="M19.492,25.064H6.992c-1.105,0-2,.895-2,2v11.742c0,1.104.895,2,2,2h12.5c1.105,0,2-.896,2-2v-11.742c0-1.105-.895-2-2-2ZM20.492,38.807c0,.552-.449,1-1,1H6.992c-.551,0-1-.448-1-1v-11.742c0-.552.449-1,1-1h12.5c.551,0,1,.448,1,1v11.742Z"/>
  <path d="M57.008,25.064h-13.517c-1.105,0-2,.895-2,2v11.742c0,1.104.895,2,2,2h13.517c1.105,0,2-.896,2-2v-11.742c0-1.105-.895-2-2-2ZM58.008,38.807c0,.552-.449,1-1,1h-13.517c-.551,0-1-.448-1-1v-11.742c0-.552.449-1,1-1h13.517c.551,0,1,.448,1,1v11.742Z"/>
</svg>