<?xml version="1.0" encoding="UTF-8"?>
<svg id="Layer_1" data-name="Layer 1" xmlns="http://www.w3.org/2000/svg" viewBox="0 0 64 48">
  <path d="M44.004,12.389h-24c-1.11,0-2,.9-2,2v15c0,1.1.89,2,2,2v2.74c0,1.11.89,2,2,2h20c1.1,0,2-.89,2-2v-2.74c1.1,0,2-.9,2-2v-15c0-1.1-.9-2-2-2ZM43.004,34.129c0,.56-.45,1-1,1h-20c-.56,0-1-.44-1-1v-8.18c0-.55.44-1,1-1h20c.55,0,1,.45,1,1v8.18Z"/>
  <path d="M29.004,29.539h6c.55,0,1-.44,1-1,0-.55-.45-1-1-1h-6c-.56,0-1,.45-1,1,0,.56.44,1,1,1Z"/>
  <circle cx="23.504" cy="27.039" r="1"/>
  <path d="M26.744,31.389c.07.05.16.08.26.08h10c.09,0,.18-.03.26-.08.14-.08.24-.24.24-.42,0-.28-.23-.5-.5-.5h-10c-.28,0-.5.22-.5.5,0,.18.09.34.24.42Z"/>
  <path d="M40.004,32.499h-16c-.28,0-.5.23-.5.5,0,.28.22.5.5.5h16c.27,0,.5-.22.5-.5,0-.27-.23-.5-.5-.5Z"/>
  <path d="M40.804,26.269c-.1-.1-.26-.1-.35,0-.1.1-.1.25,0,.35l.13.13h-.58c-.14,0-.25.11-.25.25s.11.25.25.25h.57l-.12.12c-.1.1-.1.25,0,.35.05.05.11.07.18.07.06,0,.12-.02.17-.07l.55-.55c.05-.04.07-.11.07-.17,0-.07-.02-.13-.07-.18l-.55-.55Z"/>
</svg>