<?xml version="1.0" encoding="UTF-8"?>
<svg id="Layer_1" data-name="Layer 1" xmlns="http://www.w3.org/2000/svg" viewBox="0 0 64 48">
  <path d="M44.004,14.499h-24c-1.11,0-2,.9-2,2v15c0,1.1.89,2,2,2h24c1.1,0,2-.9,2-2v-15c0-1.1-.9-2-2-2ZM29.004,23.269h6c.55,0,1,.45,1,1,0,.56-.45,1-1,1h-6c-.56,0-1-.44-1-1,0-.55.44-1,1-1ZM27.004,26.189h10c.27,0,.5.23.5.5,0,.28-.23.5-.5.5h-10c-.28,0-.5-.22-.5-.5,0-.27.22-.5.5-.5ZM22.504,17.999c0-.55.44-1,1-1,.55,0,1,.45,1,1s-.45,1-1,1c-.56,0-1-.45-1-1ZM40.004,29.229h-16c-.28,0-.5-.22-.5-.5s.22-.5.5-.5h16c.27,0,.5.22.5.5s-.23.5-.5.5ZM41.354,18.179l-.55.55c-.05.05-.11.07-.17.07-.07,0-.13-.02-.18-.07-.1-.1-.1-.26,0-.36l.11-.11h-.56c-.14,0-.25-.11-.25-.25s.11-.25.25-.25h.58l-.13-.13c-.1-.1-.1-.26,0-.36.09-.09.25-.09.35,0l.55.56c.1.09.1.25,0,.35Z"/>
</svg>