<?xml version="1.0" encoding="UTF-8"?>
<svg id="Layer_1" data-name="Layer 1" xmlns="http://www.w3.org/2000/svg" viewBox="0 0 64 48">
  <path d="M25.998,28.134h13c1.105,0,2-.896,2-2v-13.876c0-1.104-.895-2-2-2h-13c-1.105,0-2,.896-2,2v13.876c0,1.104.895,2,2,2ZM24.998,12.258c0-.552.449-1,1-1h13c.551,0,1,.448,1,1v13.876c0,.552-.449,1-1,1h-13c-.551,0-1-.448-1-1v-13.876Z"/>
  <rect x="4" y="10.258" width="18" height="12.742" rx="2" ry="2"/>
  <path d="M20,25H6c-1.105,0-2,.896-2,2v13c0,1.104.895,2,2,2h14c1.105,0,2-.896,2-2v-13c0-1.104-.895-2-2-2ZM21,40c0,.552-.449,1-1,1H6c-.551,0-1-.448-1-1v-13c0-.552.449-1,1-1h14c.551,0,1,.448,1,1v13Z"/>
  <path d="M39,30h-14c-1.105,0-2,.896-2,2v8c0,1.104.895,2,2,2h14c1.105,0,2-.896,2-2v-8c0-1.104-.895-2-2-2ZM40,40c0,.552-.449,1-1,1h-14c-.551,0-1-.448-1-1v-8c0-.552.449-1,1-1h14c.551,0,1,.448,1,1v8Z"/>
  <path d="M58,10.258h-13c-1.105,0-2,.896-2,2v3.742c0,1.104.895,2,2,2h13c1.105,0,2-.896,2-2v-3.742c0-1.104-.895-2-2-2ZM59,16c0,.552-.449,1-1,1h-13c-.551,0-1-.448-1-1v-3.742c0-.552.449-1,1-1h13c.551,0,1,.448,1,1v3.742Z"/>
  <rect x="43" y="20" width="17" height="21.999" rx="2" ry="2"/>
</svg>