<?xml version="1.0" encoding="UTF-8"?>
<svg id="Layer_1" data-name="Layer 1" xmlns="http://www.w3.org/2000/svg" viewBox="0 0 64 48">
  <rect x="21.524" y="23.496" width="1" height="1"/>
  <rect x="21.524" y="13.496" width="1" height="1"/>
  <path d="M44.004,7.986h-24c-1.11,0-2,.9-2,2v27.97c0,1.11.89,2,2,2h24c1.1,0,2-.89,2-2V9.986c0-1.1-.9-2-2-2ZM45.004,37.956c0,.55-.45,1-1,1h-24c-.56,0-1-.45-1-1v-8.96c0-.55.44-1,1-1h24c.55,0,1,.45,1,1v8.96ZM20.524,12.996c0-.27.22-.5.5-.5h2c.27,0,.5.23.5.5v2c0,.28-.23.5-.5.5h-2c-.28,0-.5-.22-.5-.5v-2ZM20.524,17.996c0-.27.22-.5.5-.5h2c.27,0,.5.23.5.5v2c0,.28-.23.5-.5.5h-2c-.28,0-.5-.22-.5-.5v-2ZM20.524,22.996c0-.27.22-.5.5-.5h2c.27,0,.5.23.5.5v2c0,.28-.23.5-.5.5h-2c-.28,0-.5-.22-.5-.5v-2Z"/>
  <rect x="21.524" y="18.496" width="1" height="1"/>
  <path d="M26.004,31.996h12c.55,0,1-.44,1-1,0-.55-.45-1-1-1h-12c-.56,0-1,.45-1,1,0,.56.44,1,1,1Z"/>
  <path d="M27.004,32.786c-.28,0-.5.22-.5.5,0,.27.22.5.5.5h10c.27,0,.5-.23.5-.5,0-.28-.23-.5-.5-.5h-10Z"/>
  <path d="M40.004,35.866h-16c-.28,0-.5.22-.5.5s.22.5.5.5h16c.27,0,.5-.22.5-.5s-.23-.5-.5-.5Z"/>
</svg>