<?xml version="1.0" encoding="UTF-8"?>
<svg id="Layer_1" data-name="Layer 1" xmlns="http://www.w3.org/2000/svg" viewBox="0 0 64 48">
  <path d="M44.004,11.806h-24c-1.11,0-2,.9-2,2v20.38c0,1.11.89,2,2,2h24c1.1,0,2-.89,2-2V13.806c0-1.1-.9-2-2-2ZM26.004,17.826h12c.55,0,1,.45,1,1s-.45,1-1,1h-12c-.56,0-1-.45-1-1s.44-1,1-1ZM37.504,21.106c0,.28-.23.5-.5.5h-10c-.28,0-.5-.22-.5-.5s.22-.5.5-.5h10c.27,0,.5.22.5.5ZM24.004,23.686h16c.27,0,.5.23.5.5,0,.28-.23.5-.5.5h-16c-.28,0-.5-.22-.5-.5,0-.27.22-.5.5-.5ZM28.504,30.826c0,.27-.23.5-.5.5h-2c-.28,0-.5-.23-.5-.5v-2c0-.28.22-.5.5-.5h2c.27,0,.5.22.5.5v2ZM33.504,30.826c0,.27-.23.5-.5.5h-2c-.28,0-.5-.23-.5-.5v-2c0-.28.22-.5.5-.5h2c.27,0,.5.22.5.5v2ZM38.504,30.826c0,.27-.23.5-.5.5h-2c-.28,0-.5-.23-.5-.5v-2c0-.28.22-.5.5-.5h2c.27,0,.5.22.5.5v2ZM42.594,26.816h-21.19c-.28,0-.5-.23-.5-.5,0-.28.22-.5.5-.5h21.19c.28,0,.5.22.5.5,0,.27-.22.5-.5.5Z"/>
  <rect x="36.504" y="29.326" width="1" height="1"/>
  <rect x="31.504" y="29.326" width="1" height="1"/>
  <rect x="26.504" y="29.326" width="1" height="1"/>
</svg>