<?xml version="1.0" encoding="UTF-8"?>
<svg id="Layer_1" data-name="Layer 1" xmlns="http://www.w3.org/2000/svg" viewBox="0 0 64 48">
  <path d="M39.004,15.979h-14c-1.11,0-2,.9-2,2v12.04c0,1.1.89,2,2,2h14c1.1,0,2-.9,2-2v-12.04c0-1.1-.9-2-2-2ZM28.824,29.349l-.67-.68.67-.67.67.67-.67.68ZM28.494,24.179c0-.28.22-.5.5-.5h6.01c.28,0,.5.22.5.5s-.22.5-.5.5h-6.01c-.28,0-.5-.22-.5-.5ZM30.414,29.349l-.67-.68.67-.67.67.67-.67.68ZM32.004,29.349l-.67-.68.67-.67.67.67-.67.68ZM33.584,29.349l-.67-.68.67-.67.67.67-.67.68ZM29.754,26.679c-.28,0-.5-.23-.5-.5,0-.28.22-.5.5-.5h4.5c.27,0,.5.22.5.5,0,.27-.23.5-.5.5h-4.5ZM35.174,29.349l-.67-.68.67-.67.67.67-.67.68ZM37.754,21.189h-11.5c-.28,0-.5-.22-.5-.5,0-.27.22-.5.5-.5h11.5c.27,0,.5.23.5.5,0,.28-.23.5-.5.5ZM38.754,19.159h-13.5c-.28,0-.5-.23-.5-.5,0-.28.22-.5.5-.5h13.5c.27,0,.5.22.5.5,0,.27-.23.5-.5.5Z"/>
  <path d="M59.004,15.979h-14c-1.11,0-2,.9-2,2v12.04c0,1.1.89,2,2,2h14c1.1,0,2-.9,2-2v-12.04c0-1.1-.9-2-2-2ZM48.824,29.349l-.67-.68.67-.67.67.67-.67.68ZM48.494,24.179c0-.28.22-.5.5-.5h6.01c.28,0,.5.22.5.5s-.22.5-.5.5h-6.01c-.28,0-.5-.22-.5-.5ZM50.414,29.349l-.67-.68.67-.67.67.67-.67.68ZM52.004,29.349l-.67-.68.67-.67.67.67-.67.68ZM53.584,29.349l-.67-.68.67-.67.67.67-.67.68ZM49.754,26.679c-.28,0-.5-.23-.5-.5,0-.28.22-.5.5-.5h4.5c.27,0,.5.22.5.5,0,.27-.23.5-.5.5h-4.5ZM55.174,29.349l-.67-.68.67-.67.67.67-.67.68ZM57.754,21.189h-11.5c-.28,0-.5-.22-.5-.5,0-.27.22-.5.5-.5h11.5c.27,0,.5.23.5.5,0,.28-.23.5-.5.5ZM58.754,19.159h-13.5c-.28,0-.5-.23-.5-.5,0-.28.22-.5.5-.5h13.5c.27,0,.5.22.5.5,0,.27-.23.5-.5.5Z"/>
  <path d="M19.004,15.979H5.004c-1.11,0-2,.9-2,2v12.04c0,1.1.89,2,2,2h14c1.1,0,2-.9,2-2v-12.04c0-1.1-.9-2-2-2ZM8.824,29.349l-.67-.68.67-.67.67.67-.67.68ZM8.494,24.179c0-.28.22-.5.5-.5h6.01c.28,0,.5.22.5.5s-.22.5-.5.5h-6.01c-.28,0-.5-.22-.5-.5ZM10.414,29.349l-.67-.68.67-.67.67.67-.67.68ZM12.004,29.349l-.67-.68.67-.67.67.67-.67.68ZM13.584,29.349l-.67-.68.67-.67.67.67-.67.68ZM9.754,26.679c-.28,0-.5-.23-.5-.5,0-.28.22-.5.5-.5h4.5c.27,0,.5.22.5.5,0,.27-.23.5-.5.5h-4.5ZM15.174,29.349l-.67-.68.67-.67.67.67-.67.68ZM17.754,21.189H6.254c-.28,0-.5-.22-.5-.5,0-.27.22-.5.5-.5h11.5c.27,0,.5.23.5.5,0,.28-.23.5-.5.5ZM18.754,19.159H5.254c-.28,0-.5-.23-.5-.5,0-.28.22-.5.5-.5h13.5c.27,0,.5.22.5.5,0,.27-.23.5-.5.5Z"/>
  <circle cx="33.5" cy="39" r="1"/>
  <circle cx="36.5" cy="39" r="1"/>
  <path d="M30.5,38h-3c-.552,0-1,.448-1,1s.448,1,1,1h3c.552,0,1-.448,1-1s-.448-1-1-1Z"/>
</svg>