<?xml version="1.0" encoding="UTF-8"?>
<svg id="Layer_1" data-name="Layer 1" xmlns="http://www.w3.org/2000/svg" viewBox="0 0 64 48">
  <path d="M39,12.591h-14c-1.105,0-2,.895-2,2v14.409c0,1.104.895,2,2,2h14c1.105,0,2-.896,2-2v-14.409c0-1.105-.895-2-2-2ZM40,29c0,.552-.449,1-1,1h-14c-.551,0-1-.448-1-1v-14.409c0-.552.449-1,1-1h14c.551,0,1,.448,1,1v14.409Z"/>
  <path d="M38.501,18.067h-9.054c-.276,0-.5.224-.5.5s.224.5.5.5h9.054c.276,0,.5-.224.5-.5s-.224-.5-.5-.5Z"/>
  <path d="M37.435,21.102c.276,0,.5-.224.5-.5s-.224-.5-.5-.5h-7.988c-.276,0-.5.224-.5.5s.224.5.5.5h7.988Z"/>
  <path d="M29.657,24.828c-.276,0-.5.224-.5.5s.224.5.5.5h4.5c.276,0,.5-.224.5-.5s-.224-.5-.5-.5h-4.5Z"/>
  <path d="M36.168,23.33c0-.276-.224-.5-.5-.5h-6.011c-.276,0-.5.224-.5.5s.224.5.5.5h6.011c.276,0,.5-.224.5-.5Z"/>
  <rect x="29.376" y="27.228" width="1.195" height="1.195" transform="translate(-10.897 29.343) rotate(-44.998)"/>
  <rect x="31.376" y="27.228" width="1.195" height="1.195" transform="translate(-10.311 30.757) rotate(-44.998)"/>
  <rect x="33.376" y="27.228" width="1.195" height="1.195" transform="translate(-9.725 32.171) rotate(-44.998)"/>
  <rect x="35.376" y="27.228" width="1.195" height="1.195" transform="translate(-9.139 33.586) rotate(-44.998)"/>
  <rect x="37.376" y="27.228" width="1.195" height="1.195" transform="translate(-8.554 35) rotate(-44.998)"/>
  <path d="M31.003,15.731h.427v.053c0,.206-.167.373-.373.373h-.053c-.118,0-.213.095-.213.213s.095.213.213.213h.053c.442,0,.8-.358.8-.8v-.906c0-.235-.191-.427-.427-.427h-.427c-.235,0-.427.191-.427.427v.427c0,.235.191.427.427.427Z"/>
  <path d="M29.427,15.731h.427v.053c0,.206-.167.373-.373.373h-.053c-.118,0-.213.095-.213.213s.095.213.213.213h.053c.442,0,.8-.358.8-.8v-.906c0-.235-.191-.427-.427-.427h-.427c-.235,0-.427.191-.427.427v.427c0,.235.191.427.427.427Z"/>
  <circle cx="26.143" cy="19.612" r="1.857"/>
  <path d="M18,12.591H4c-1.105,0-2,.895-2,2v14.409c0,1.104.895,2,2,2h14c1.105,0,2-.896,2-2v-14.409c0-1.105-.895-2-2-2ZM19,29c0,.552-.449,1-1,1H4c-.551,0-1-.448-1-1v-14.409c0-.552.449-1,1-1h14c.551,0,1,.448,1,1v14.409Z"/>
  <path d="M17.501,18.067h-9.054c-.276,0-.5.224-.5.5s.224.5.5.5h9.054c.276,0,.5-.224.5-.5s-.224-.5-.5-.5Z"/>
  <path d="M16.435,21.102c.276,0,.5-.224.5-.5s-.224-.5-.5-.5h-7.988c-.276,0-.5.224-.5.5s.224.5.5.5h7.988Z"/>
  <path d="M8.657,24.828c-.276,0-.5.224-.5.5s.224.5.5.5h4.5c.276,0,.5-.224.5-.5s-.224-.5-.5-.5h-4.5Z"/>
  <path d="M15.168,23.33c0-.276-.224-.5-.5-.5h-6.011c-.276,0-.5.224-.5.5s.224.5.5.5h6.011c.276,0,.5-.224.5-.5Z"/>
  <rect x="8.376" y="27.228" width="1.195" height="1.195" transform="translate(-17.047 14.494) rotate(-44.998)"/>
  <rect x="10.376" y="27.228" width="1.195" height="1.195" transform="translate(-16.461 15.909) rotate(-44.998)"/>
  <rect x="12.376" y="27.228" width="1.195" height="1.195" transform="translate(-15.875 17.323) rotate(-44.998)"/>
  <rect x="14.376" y="27.228" width="1.195" height="1.195" transform="translate(-15.29 18.737) rotate(-44.998)"/>
  <rect x="16.376" y="27.228" width="1.195" height="1.195" transform="translate(-14.704 20.151) rotate(-44.998)"/>
  <path d="M10.003,15.731h.427v.053c0,.206-.167.373-.373.373h-.053c-.118,0-.213.095-.213.213s.095.213.213.213h.053c.442,0,.8-.358.8-.8v-.906c0-.235-.191-.427-.427-.427h-.427c-.235,0-.427.191-.427.427v.427c0,.235.191.427.427.427Z"/>
  <path d="M8.427,15.731h.427v.053c0,.206-.167.373-.373.373h-.053c-.118,0-.213.095-.213.213s.095.213.213.213h.053c.442,0,.8-.358.8-.8v-.906c0-.235-.191-.427-.427-.427h-.427c-.235,0-.427.191-.427.427v.427c0,.235.191.427.427.427Z"/>
  <circle cx="5.143" cy="19.612" r="1.857"/>
  <path d="M60,12.591h-14c-1.105,0-2,.895-2,2v14.409c0,1.104.895,2,2,2h14c1.105,0,2-.896,2-2v-14.409c0-1.105-.895-2-2-2ZM61,29c0,.552-.449,1-1,1h-14c-.551,0-1-.448-1-1v-14.409c0-.552.449-1,1-1h14c.551,0,1,.448,1,1v14.409Z"/>
  <path d="M59.501,18.067h-9.054c-.276,0-.5.224-.5.5s.224.5.5.5h9.054c.276,0,.5-.224.5-.5s-.224-.5-.5-.5Z"/>
  <path d="M58.435,21.102c.276,0,.5-.224.5-.5s-.224-.5-.5-.5h-7.988c-.276,0-.5.224-.5.5s.224.5.5.5h7.988Z"/>
  <path d="M50.657,24.828c-.276,0-.5.224-.5.5s.224.5.5.5h4.5c.276,0,.5-.224.5-.5s-.224-.5-.5-.5h-4.5Z"/>
  <path d="M57.168,23.33c0-.276-.224-.5-.5-.5h-6.011c-.276,0-.5.224-.5.5s.224.5.5.5h6.011c.276,0,.5-.224.5-.5Z"/>
  <rect x="50.376" y="27.228" width="1.195" height="1.195" transform="translate(-4.746 44.192) rotate(-44.998)"/>
  <rect x="52.376" y="27.228" width="1.195" height="1.195" transform="translate(-4.161 45.606) rotate(-44.998)"/>
  <rect x="54.376" y="27.228" width="1.195" height="1.195" transform="translate(-3.575 47.02) rotate(-44.998)"/>
  <rect x="56.376" y="27.228" width="1.195" height="1.195" transform="translate(-2.989 48.434) rotate(-44.998)"/>
  <rect x="58.376" y="27.228" width="1.195" height="1.195" transform="translate(-2.404 49.848) rotate(-44.998)"/>
  <path d="M52.003,15.731h.427v.053c0,.206-.167.373-.373.373h-.053c-.118,0-.213.095-.213.213s.095.213.213.213h.053c.442,0,.8-.358.8-.8v-.906c0-.235-.191-.427-.427-.427h-.427c-.235,0-.427.191-.427.427v.427c0,.235.191.427.427.427Z"/>
  <path d="M50.427,15.731h.427v.053c0,.206-.167.373-.373.373h-.053c-.118,0-.213.095-.213.213s.095.213.213.213h.053c.442,0,.8-.358.8-.8v-.906c0-.235-.191-.427-.427-.427h-.427c-.235,0-.427.191-.427.427v.427c0,.235.191.427.427.427Z"/>
  <circle cx="47.143" cy="19.612" r="1.857"/>
  <circle cx="33.5" cy="39" r="1"/>
  <circle cx="36.5" cy="39" r="1"/>
  <path d="M30.5,38h-3c-.552,0-1,.448-1,1s.448,1,1,1h3c.552,0,1-.448,1-1s-.448-1-1-1Z"/>
</svg>