<?xml version="1.0" encoding="UTF-8"?>
<svg id="Layer_1" data-name="Layer 1" xmlns="http://www.w3.org/2000/svg" viewBox="0 0 64 48">
  <path d="M39,12.591h-14c-1.105,0-2,.895-2,2v9.994c0,.552.448,1,1,1h5c0,1.657,1.343,3,3,3s3-1.343,3-3h5c.552,0,1-.448,1-1v-9.994c0-1.105-.895-2-2-2ZM40,24.584h-5.184c-.413-1.163-1.512-2-2.816-2s-2.403.837-2.816,2h-5.184v-9.994c0-.552.449-1,1-1h14c.551,0,1,.448,1,1v9.994Z"/>
  <path d="M38.501,18.067h-13.5c-.276,0-.5.224-.5.5s.224.5.5.5h13.5c.276,0,.5-.224.5-.5s-.224-.5-.5-.5Z"/>
  <path d="M37.501,20.102h-11.5c-.276,0-.5.224-.5.5s.224.5.5.5h11.5c.276,0,.5-.224.5-.5s-.224-.5-.5-.5Z"/>
  <path d="M34.398,32.567c.276,0,.5-.224.5-.5s-.224-.5-.5-.5h-4.5c-.276,0-.5.224-.5.5s.224.5.5.5h4.5Z"/>
  <path d="M35.654,30.069c0-.276-.224-.5-.5-.5h-6.011c-.276,0-.5.224-.5.5s.224.5.5.5h6.011c.276,0,.5-.224.5-.5Z"/>
  <rect x="27.551" y="33.967" width="1.195" height="1.195" transform="translate(-16.196 30.026) rotate(-44.998)"/>
  <rect x="29.551" y="33.967" width="1.195" height="1.195" transform="translate(-15.611 31.443) rotate(-45.002)"/>
  <rect x="31.551" y="33.967" width="1.195" height="1.195" transform="translate(-15.025 32.856) rotate(-45)"/>
  <rect x="33.551" y="33.967" width="1.195" height="1.195" transform="translate(-14.439 34.27) rotate(-45)"/>
  <rect x="35.551" y="33.967" width="1.195" height="1.195" transform="translate(-13.853 35.683) rotate(-44.998)"/>
  <path d="M32.575,15.731h.427v.053c0,.206-.167.373-.373.373h-.053c-.118,0-.213.095-.213.213s.095.213.213.213h.053c.442,0,.8-.358.8-.8v-.906c0-.235-.191-.427-.427-.427h-.427c-.235,0-.427.191-.427.427v.427c0,.235.191.427.427.427Z"/>
  <path d="M30.999,15.731h.427v.053c0,.206-.167.373-.373.373h-.053c-.118,0-.213.095-.213.213s.095.213.213.213h.053c.442,0,.8-.358.8-.8v-.906c0-.235-.191-.427-.427-.427h-.427c-.235,0-.427.191-.427.427v.427c0,.235.191.427.427.427Z"/>
  <path d="M17.993,12.591H3.993c-1.105,0-2,.895-2,2v9.994c0,.552.448,1,1,1h5c0,1.657,1.343,3,3,3s3-1.343,3-3h5c.552,0,1-.448,1-1v-9.994c0-1.105-.895-2-2-2ZM18.993,24.584h-5.184c-.413-1.163-1.512-2-2.816-2s-2.403.837-2.816,2H2.993v-9.994c0-.552.449-1,1-1h14c.551,0,1,.448,1,1v9.994Z"/>
  <path d="M17.493,18.067H3.994c-.276,0-.5.224-.5.5s.224.5.5.5h13.5c.276,0,.5-.224.5-.5s-.224-.5-.5-.5Z"/>
  <path d="M16.493,20.102H4.994c-.276,0-.5.224-.5.5s.224.5.5.5h11.5c.276,0,.5-.224.5-.5s-.224-.5-.5-.5Z"/>
  <path d="M13.391,32.567c.276,0,.5-.224.5-.5s-.224-.5-.5-.5h-4.5c-.276,0-.5.224-.5.5s.224.5.5.5h4.5Z"/>
  <path d="M14.647,30.069c0-.276-.224-.5-.5-.5h-6.011c-.276,0-.5.224-.5.5s.224.5.5.5h6.011c.276,0,.5-.224.5-.5Z"/>
  <rect x="6.544" y="33.967" width="1.195" height="1.195" transform="translate(-22.349 15.173) rotate(-45)"/>
  <rect x="8.544" y="33.967" width="1.195" height="1.195" transform="translate(-21.764 16.588) rotate(-45)"/>
  <rect x="10.544" y="33.967" width="1.195" height="1.195" transform="translate(-21.178 18.002) rotate(-45)"/>
  <rect x="12.544" y="33.967" width="1.195" height="1.195" transform="translate(-20.592 19.416) rotate(-45)"/>
  <rect x="14.544" y="33.967" width="1.195" height="1.195" transform="translate(-20.006 20.83) rotate(-45)"/>
  <path d="M9.992,15.731h.427v.053c0,.206-.167.373-.373.373h-.053c-.118,0-.213.095-.213.213s.095.213.213.213h.053c.442,0,.8-.358.8-.8v-.906c0-.235-.191-.427-.427-.427h-.427c-.235,0-.427.191-.427.427v.427c0,.235.191.427.427.427Z"/>
  <path d="M11.568,15.731h.427v.053c0,.206-.167.373-.373.373h-.053c-.118,0-.213.095-.213.213s.095.213.213.213h.053c.442,0,.8-.358.8-.8v-.906c0-.235-.191-.427-.427-.427h-.427c-.235,0-.427.191-.427.427v.427c0,.235.191.427.427.427Z"/>
  <path d="M60.007,12.591h-14c-1.105,0-2,.895-2,2v9.994c0,.552.448,1,1,1h5c0,1.657,1.343,3,3,3s3-1.343,3-3h5c.552,0,1-.448,1-1v-9.994c0-1.105-.895-2-2-2ZM61.007,24.584h-5.184c-.413-1.163-1.512-2-2.816-2s-2.403.837-2.816,2h-5.184v-9.994c0-.552.449-1,1-1h14c.551,0,1,.448,1,1v9.994Z"/>
  <path d="M59.507,18.067h-13.5c-.276,0-.5.224-.5.5s.224.5.5.5h13.5c.276,0,.5-.224.5-.5s-.224-.5-.5-.5Z"/>
  <path d="M58.507,20.102h-11.5c-.276,0-.5.224-.5.5s.224.5.5.5h11.5c.276,0,.5-.224.5-.5s-.224-.5-.5-.5Z"/>
  <path d="M55.405,32.567c.276,0,.5-.224.5-.5s-.224-.5-.5-.5h-4.5c-.276,0-.5.224-.5.5s.224.5.5.5h4.5Z"/>
  <path d="M56.661,30.069c0-.276-.224-.5-.5-.5h-6.011c-.276,0-.5.224-.5.5s.224.5.5.5h6.011c.276,0,.5-.224.5-.5Z"/>
  <rect x="48.558" y="33.967" width="1.195" height="1.195" transform="translate(-10.044 44.882) rotate(-45)"/>
  <rect x="50.558" y="33.967" width="1.195" height="1.195" transform="translate(-9.458 46.296) rotate(-45)"/>
  <rect x="52.558" y="33.967" width="1.195" height="1.195" transform="translate(-8.872 47.71) rotate(-45)"/>
  <rect x="54.558" y="33.967" width="1.195" height="1.195" transform="translate(-8.286 49.124) rotate(-45)"/>
  <rect x="56.558" y="33.967" width="1.195" height="1.195" transform="translate(-7.701 50.539) rotate(-45)"/>
  <path d="M53.582,15.731h.427v.053c0,.206-.167.373-.373.373h-.053c-.118,0-.213.095-.213.213s.095.213.213.213h.053c.442,0,.8-.358.8-.8v-.906c0-.235-.191-.427-.427-.427h-.427c-.235,0-.427.191-.427.427v.427c0,.235.191.427.427.427Z"/>
  <path d="M52.006,15.731h.427v.053c0,.206-.167.373-.373.373h-.053c-.118,0-.213.095-.213.213s.095.213.213.213h.053c.442,0,.8-.358.8-.8v-.906c0-.235-.191-.427-.427-.427h-.427c-.235,0-.427.191-.427.427v.427c0,.235.191.427.427.427Z"/>
  <circle cx="33.5" cy="39" r="1"/>
  <circle cx="36.5" cy="39" r="1"/>
  <path d="M30.5,38h-3c-.552,0-1,.448-1,1s.448,1,1,1h3c.552,0,1-.448,1-1s-.448-1-1-1Z"/>
</svg>