<?xml version="1.0" encoding="UTF-8"?>
<svg id="Layer_1" data-name="Layer 1" xmlns="http://www.w3.org/2000/svg" viewBox="0 0 64 48">
  <path d="M39,12.591h-14c-1.105,0-2,.896-2,2v14.409c0,1.104.895,2,2,2h14c1.105,0,2-.896,2-2v-14.409c0-1.104-.895-2-2-2ZM40,29c0,.552-.449,1-1,1h-14c-.551,0-1-.448-1-1v-14.409c0-.552.449-1,1-1h14c.551,0,1,.448,1,1v14.409Z"/>
  <path d="M38.501,18.067h-13.002c-.276,0-.5.224-.5.5s.224.5.5.5h13.002c.276,0,.5-.224.5-.5s-.224-.5-.5-.5Z"/>
  <path d="M25.499,21.102h11.472c.276,0,.5-.224.5-.5s-.224-.5-.5-.5h-11.472c-.276,0-.5.224-.5.5s.224.5.5.5Z"/>
  <path d="M35.966,25.828c.276,0,.5-.224.5-.5s-.224-.5-.5-.5h-4.5c-.276,0-.5.224-.5.5s.224.5.5.5h4.5Z"/>
  <path d="M37.978,23.33c0-.276-.224-.5-.5-.5h-6.011c-.276,0-.5.224-.5.5s.224.5.5.5h6.011c.276,0,.5-.224.5-.5Z"/>
  <rect x="31.325" y="26.837" width=".948" height=".948" transform="translate(-9.997 30.492) rotate(-45.01)"/>
  <rect x="32.913" y="26.837" width=".948" height=".948" transform="translate(-9.532 31.615) rotate(-45.01)"/>
  <rect x="34.5" y="26.837" width=".948" height=".948" transform="translate(-9.067 32.733) rotate(-45.005)"/>
  <rect x="36.087" y="26.837" width=".948" height=".948" transform="translate(-8.602 33.856) rotate(-45.005)"/>
  <rect x="37.674" y="26.837" width=".948" height=".948" transform="translate(-8.137 34.978) rotate(-45.005)"/>
  <path d="M27.003,15.731h.427v.053c0,.206-.167.373-.373.373h-.053c-.118,0-.213.095-.213.213s.095.213.213.213h.053c.442,0,.8-.358.8-.8v-.906c0-.235-.191-.427-.427-.427h-.427c-.235,0-.427.191-.427.427v.427c0,.235.191.427.427.427Z"/>
  <path d="M25.427,15.731h.427v.053c0,.206-.167.373-.373.373h-.053c-.118,0-.213.095-.213.213s.095.213.213.213h.053c.442,0,.8-.358.8-.8v-.906c0-.235-.191-.427-.427-.427h-.427c-.235,0-.427.191-.427.427v.427c0,.235.191.427.427.427Z"/>
  <circle cx="27.5" cy="25.481" r="2.5"/>
  <path d="M19,12.591H5c-1.105,0-2,.896-2,2v14.409c0,1.104.895,2,2,2h14c1.105,0,2-.896,2-2v-14.409c0-1.104-.895-2-2-2ZM20,29c0,.552-.449,1-1,1H5c-.551,0-1-.448-1-1v-14.409c0-.552.449-1,1-1h14c.551,0,1,.448,1,1v14.409Z"/>
  <path d="M18.501,18.067H5.499c-.276,0-.5.224-.5.5s.224.5.5.5h13.002c.276,0,.5-.224.5-.5s-.224-.5-.5-.5Z"/>
  <path d="M5.499,21.102h11.472c.276,0,.5-.224.5-.5s-.224-.5-.5-.5H5.499c-.276,0-.5.224-.5.5s.224.5.5.5Z"/>
  <path d="M15.966,25.828c.276,0,.5-.224.5-.5s-.224-.5-.5-.5h-4.5c-.276,0-.5.224-.5.5s.224.5.5.5h4.5Z"/>
  <path d="M17.978,23.33c0-.276-.224-.5-.5-.5h-6.011c-.276,0-.5.224-.5.5s.224.5.5.5h6.011c.276,0,.5-.224.5-.5Z"/>
  <rect x="11.325" y="26.837" width=".948" height=".948" transform="translate(-15.858 16.348) rotate(-45.01)"/>
  <rect x="12.913" y="26.837" width=".948" height=".948" transform="translate(-15.392 17.47) rotate(-45.01)"/>
  <rect x="14.5" y="26.837" width=".948" height=".948" transform="translate(-14.927 18.59) rotate(-45.005)"/>
  <rect x="16.087" y="26.837" width=".948" height=".948" transform="translate(-14.462 19.712) rotate(-45.005)"/>
  <rect x="17.674" y="26.837" width=".948" height=".948" transform="translate(-13.997 20.835) rotate(-45.005)"/>
  <path d="M5.427,15.731h.427v.053c0,.206-.167.373-.373.373h-.053c-.118,0-.213.095-.213.213s.095.213.213.213h.053c.442,0,.8-.358.8-.8v-.906c0-.235-.191-.427-.427-.427h-.427c-.235,0-.427.191-.427.427v.427c0,.235.191.427.427.427Z"/>
  <path d="M7.003,15.731h.427v.053c0,.206-.167.373-.373.373h-.053c-.118,0-.213.095-.213.213s.095.213.213.213h.053c.442,0,.8-.358.8-.8v-.906c0-.235-.191-.427-.427-.427h-.427c-.235,0-.427.191-.427.427v.427c0,.235.191.427.427.427Z"/>
  <circle cx="7.5" cy="25.481" r="2.5"/>
  <path d="M59,12.591h-14c-1.105,0-2,.896-2,2v14.409c0,1.104.895,2,2,2h14c1.105,0,2-.896,2-2v-14.409c0-1.104-.895-2-2-2ZM60,29c0,.552-.449,1-1,1h-14c-.551,0-1-.448-1-1v-14.409c0-.552.449-1,1-1h14c.551,0,1,.448,1,1v14.409Z"/>
  <path d="M58.501,18.067h-13.002c-.276,0-.5.224-.5.5s.224.5.5.5h13.002c.276,0,.5-.224.5-.5s-.224-.5-.5-.5Z"/>
  <path d="M45.499,21.102h11.472c.276,0,.5-.224.5-.5s-.224-.5-.5-.5h-11.472c-.276,0-.5.224-.5.5s.224.5.5.5Z"/>
  <path d="M55.966,25.828c.276,0,.5-.224.5-.5s-.224-.5-.5-.5h-4.5c-.276,0-.5.224-.5.5s.224.5.5.5h4.5Z"/>
  <path d="M57.978,23.33c0-.276-.224-.5-.5-.5h-6.011c-.276,0-.5.224-.5.5s.224.5.5.5h6.011c.276,0,.5-.224.5-.5Z"/>
  <rect x="51.325" y="26.837" width=".948" height=".948" transform="translate(-4.137 44.637) rotate(-45.01)"/>
  <rect x="52.913" y="26.837" width=".948" height=".948" transform="translate(-3.672 45.759) rotate(-45.01)"/>
  <rect x="54.5" y="26.837" width=".948" height=".948" transform="translate(-3.208 46.877) rotate(-45.005)"/>
  <rect x="56.087" y="26.837" width=".948" height=".948" transform="translate(-2.743 47.999) rotate(-45.005)"/>
  <rect x="57.674" y="26.837" width=".948" height=".948" transform="translate(-2.278 49.121) rotate(-45.005)"/>
  <path d="M45.427,15.731h.427v.053c0,.206-.167.373-.373.373h-.053c-.118,0-.213.095-.213.213s.095.213.213.213h.053c.442,0,.8-.358.8-.8v-.906c0-.235-.191-.427-.427-.427h-.427c-.235,0-.427.191-.427.427v.427c0,.235.191.427.427.427Z"/>
  <path d="M47.003,15.731h.427v.053c0,.206-.167.373-.373.373h-.053c-.118,0-.213.095-.213.213s.095.213.213.213h.053c.442,0,.8-.358.8-.8v-.906c0-.235-.191-.427-.427-.427h-.427c-.235,0-.427.191-.427.427v.427c0,.235.191.427.427.427Z"/>
  <circle cx="47.5" cy="25.481" r="2.5"/>
  <circle cx="33.5" cy="39" r="1"/>
  <circle cx="36.5" cy="39" r="1"/>
  <path d="M30.5,38h-3c-.552,0-1,.448-1,1s.448,1,1,1h3c.552,0,1-.448,1-1s-.448-1-1-1Z"/>
</svg>