<?xml version="1.0" encoding="UTF-8"?>
<svg id="Layer_1" data-name="Layer 1" xmlns="http://www.w3.org/2000/svg" viewBox="0 0 64 48">
  <path d="M40.659,8.888c-.072-.106-.154-.206-.244-.296-.362-.362-.862-.586-1.414-.586h-14c-.69,0-1.299.35-1.658.882-.072.106-.134.22-.184.34-.101.239-.157.502-.157.778h0v23.988c0,1.104.895,2,2,2h14c1.105,0,2-.896,2-2V10.006h0c0-.276-.056-.539-.157-.778-.051-.12-.112-.233-.184-.34ZM40,33.994c0,.552-.449,1-1,1h-14c-.551,0-1-.448-1-1v-14.035h16v14.035Z"/>
  <path d="M25.501,22.489h13.5c.276,0,.5-.224.5-.5s-.224-.5-.5-.5h-13.5c-.276,0-.5.224-.5.5s.224.5.5.5Z"/>
  <path d="M25.501,24.524h11.5c.276,0,.5-.224.5-.5s-.224-.5-.5-.5h-11.5c-.276,0-.5.224-.5.5s.224.5.5.5Z"/>
  <path d="M25.501,30.009h4.5c.276,0,.5-.224.5-.5s-.224-.5-.5-.5h-4.5c-.276,0-.5.224-.5.5s.224.5.5.5Z"/>
  <path d="M25.501,28.01h6.011c.276,0,.5-.224.5-.5s-.224-.5-.5-.5h-6.011c-.276,0-.5.224-.5.5s.224.5.5.5Z"/>
  <rect x="25.248" y="31.409" width="1.195" height="1.195" transform="translate(-15.062 27.648) rotate(-44.998)"/>
  <rect x="27.248" y="31.409" width="1.195" height="1.195" transform="translate(-14.476 29.064) rotate(-45)"/>
  <rect x="29.248" y="31.409" width="1.195" height="1.195" transform="translate(-13.89 30.478) rotate(-45)"/>
  <rect x="31.248" y="31.409" width="1.195" height="1.195" transform="translate(-13.305 31.892) rotate(-45)"/>
  <rect x="33.248" y="31.409" width="1.195" height="1.195" transform="translate(-12.719 33.306) rotate(-45)"/>
  <path d="M20.659,8.888c-.072-.106-.154-.206-.244-.296-.362-.362-.862-.586-1.414-.586H5c-.69,0-1.299.35-1.658.882-.072.106-.134.22-.184.34-.101.239-.157.502-.157.778h0v23.988c0,1.104.895,2,2,2h14c1.105,0,2-.896,2-2V10.006h0c0-.276-.056-.539-.157-.778-.051-.12-.112-.233-.184-.34ZM20,33.994c0,.552-.449,1-1,1H5c-.551,0-1-.448-1-1v-14.035h16v14.035Z"/>
  <path d="M5.501,22.489h13.5c.276,0,.5-.224.5-.5s-.224-.5-.5-.5H5.501c-.276,0-.5.224-.5.5s.224.5.5.5Z"/>
  <path d="M5.501,24.524h11.5c.276,0,.5-.224.5-.5s-.224-.5-.5-.5H5.501c-.276,0-.5.224-.5.5s.224.5.5.5Z"/>
  <path d="M5.501,30.009h4.5c.276,0,.5-.224.5-.5s-.224-.5-.5-.5h-4.5c-.276,0-.5.224-.5.5s.224.5.5.5Z"/>
  <path d="M5.501,28.01h6.011c.276,0,.5-.224.5-.5s-.224-.5-.5-.5h-6.011c-.276,0-.5.224-.5.5s.224.5.5.5Z"/>
  <rect x="5.248" y="31.409" width="1.195" height="1.195" transform="translate(-20.919 13.507) rotate(-44.998)"/>
  <rect x="7.248" y="31.409" width="1.195" height="1.195" transform="translate(-20.334 14.922) rotate(-45)"/>
  <rect x="9.248" y="31.409" width="1.195" height="1.195" transform="translate(-19.748 16.336) rotate(-45)"/>
  <rect x="11.248" y="31.409" width="1.195" height="1.195" transform="translate(-19.162 17.75) rotate(-45)"/>
  <rect x="13.248" y="31.409" width="1.195" height="1.195" transform="translate(-18.577 19.164) rotate(-45)"/>
  <path d="M60.843,9.228c-.051-.12-.112-.233-.184-.34s-.154-.206-.244-.296c-.362-.362-.862-.586-1.414-.586h-14c-.69,0-1.299.35-1.658.882-.072.106-.134.22-.184.34-.101.239-.157.502-.157.778h0v23.988c0,1.104.895,2,2,2h14c1.105,0,2-.896,2-2V10.006h0c0-.276-.056-.539-.157-.778ZM60,33.994c0,.552-.449,1-1,1h-14c-.551,0-1-.448-1-1v-14.035h16v14.035Z"/>
  <path d="M45.501,22.489h13.5c.276,0,.5-.224.5-.5s-.224-.5-.5-.5h-13.5c-.276,0-.5.224-.5.5s.224.5.5.5Z"/>
  <path d="M45.501,24.524h11.5c.276,0,.5-.224.5-.5s-.224-.5-.5-.5h-11.5c-.276,0-.5.224-.5.5s.224.5.5.5Z"/>
  <path d="M45.501,30.009h4.5c.276,0,.5-.224.5-.5s-.224-.5-.5-.5h-4.5c-.276,0-.5.224-.5.5s.224.5.5.5Z"/>
  <path d="M45.501,28.01h6.011c.276,0,.5-.224.5-.5s-.224-.5-.5-.5h-6.011c-.276,0-.5.224-.5.5s.224.5.5.5Z"/>
  <rect x="45.248" y="31.409" width="1.195" height="1.195" transform="translate(-9.204 41.79) rotate(-44.998)"/>
  <rect x="47.248" y="31.409" width="1.195" height="1.195" transform="translate(-8.618 43.206) rotate(-45)"/>
  <rect x="49.248" y="31.409" width="1.195" height="1.195" transform="translate(-8.032 44.62) rotate(-45)"/>
  <rect x="51.248" y="31.409" width="1.195" height="1.195" transform="translate(-7.447 46.034) rotate(-45)"/>
  <rect x="53.248" y="31.409" width="1.195" height="1.195" transform="translate(-6.861 47.449) rotate(-45)"/>
  <circle cx="33.5" cy="39" r="1"/>
  <circle cx="36.5" cy="39" r="1"/>
  <path d="M30.5,38h-3c-.552,0-1,.448-1,1s.448,1,1,1h3c.552,0,1-.448,1-1s-.448-1-1-1Z"/>
</svg>